<svg width="19" height="18" viewBox="0 0 19 18" fill="none" xmlns="http://www.w3.org/2000/svg">
<path d="M4.8882 17.5H1.26008V5.81625H4.8882V17.5ZM3.07195 4.2225C1.91195 4.2225 0.970703 3.26125 0.970703 2.10125C0.970703 1.54396 1.19208 1.0095 1.58615 0.615442C1.98021 0.221381 2.51467 0 3.07195 0C3.62924 0 4.1637 0.221381 4.55776 0.615442C4.95182 1.0095 5.1732 1.54396 5.1732 2.10125C5.1732 3.26125 4.23195 4.2225 3.07195 4.2225ZM18.467 17.5H14.847V11.8125C14.847 10.4569 14.8195 8.71875 12.9607 8.71875C11.0745 8.71875 10.7851 10.1912 10.7851 11.715V17.5H7.1607V5.81625H10.6401V7.41H10.6907C11.1751 6.49188 12.3582 5.52312 14.1232 5.52312C17.7951 5.52312 18.4701 7.94125 18.4701 11.0819V17.5H18.467Z" fill="#999999"/>
</svg>
