<svg width="20" height="16" viewBox="0 0 20 16" fill="none" xmlns="http://www.w3.org/2000/svg">
<path d="M19.4233 2.11418C18.7274 2.42251 17.9799 2.63085 17.1941 2.72501C18.0049 2.23984 18.6115 1.47624 18.9008 0.57668C18.139 1.02917 17.3052 1.34768 16.4358 1.51835C15.8511 0.894068 15.0766 0.480285 14.2327 0.341242C13.3887 0.202198 12.5225 0.345673 11.7685 0.749391C11.0144 1.15311 10.4147 1.79448 10.0625 2.57393C9.71036 3.35338 9.62537 4.22731 9.82075 5.06001C8.27716 4.98251 6.76711 4.5813 5.38861 3.88243C4.0101 3.18356 2.79395 2.20265 1.81909 1.00335C1.48575 1.57835 1.29409 2.24501 1.29409 2.95501C1.29372 3.59418 1.45111 4.22355 1.75232 4.78729C2.05352 5.35103 2.48922 5.83171 3.02075 6.18668C2.40432 6.16707 1.80148 6.0005 1.26242 5.70085V5.75085C1.26236 6.6473 1.57245 7.51616 2.14007 8.21001C2.7077 8.90386 3.4979 9.37996 4.37659 9.55751C3.80474 9.71228 3.2052 9.73507 2.62325 9.62418C2.87117 10.3955 3.35408 11.07 4.00439 11.5533C4.6547 12.0365 5.43985 12.3043 6.24992 12.3192C4.87478 13.3987 3.17649 13.9843 1.42825 13.9817C1.11857 13.9818 0.80915 13.9637 0.501587 13.9275C2.27615 15.0685 4.34187 15.674 6.45159 15.6717C13.5933 15.6717 17.4974 9.75668 17.4974 4.62668C17.4974 4.46001 17.4933 4.29168 17.4858 4.12501C18.2452 3.57583 18.9007 2.89576 19.4216 2.11668L19.4233 2.11418Z" fill="#999999"/>
</svg>
